<mxfile host="app.diagrams.net" agent="Mozilla/5.0 (Windows NT 10.0; Win64; x64) AppleWebKit/537.36 (KHTML, like Gecko) Chrome/138.0.0.0 Safari/537.36" version="27.1.6">
  <diagram name="Página-1" id="IpmAKofrDw2QBqaIdOL2">
    <mxGraphModel grid="1" page="1" gridSize="10" guides="1" tooltips="1" connect="1" arrows="1" fold="1" pageScale="1" pageWidth="827" pageHeight="1169" math="0" shadow="0">
      <root>
        <mxCell id="0" />
        <mxCell id="1" parent="0" />
        <mxCell id="emeNvtZWzEPwYmurZ9CY-1" value="CU030 Gestionar perfil" style="swimlane;childLayout=stackLayout;resizeParent=1;resizeParentMax=0;startSize=20;horizontal=0;horizontalStack=1;" vertex="1" parent="1">
          <mxGeometry x="24" y="-1044" width="1030" height="800" as="geometry">
            <mxRectangle x="200" y="80" width="40" height="50" as="alternateBounds" />
          </mxGeometry>
        </mxCell>
        <mxCell id="emeNvtZWzEPwYmurZ9CY-4" value="Usuario" style="swimlane;startSize=20;" vertex="1" parent="emeNvtZWzEPwYmurZ9CY-1">
          <mxGeometry x="20" width="370" height="800" as="geometry" />
        </mxCell>
        <mxCell id="emeNvtZWzEPwYmurZ9CY-5" value="" style="ellipse;html=1;shape=startState;fillColor=#000000;strokeColor=#ff0000;fillStyle=auto;" vertex="1" parent="emeNvtZWzEPwYmurZ9CY-4">
          <mxGeometry x="180" y="30" width="30" height="30" as="geometry" />
        </mxCell>
        <mxCell id="emeNvtZWzEPwYmurZ9CY-79" style="edgeStyle=orthogonalEdgeStyle;rounded=0;orthogonalLoop=1;jettySize=auto;html=1;entryX=0;entryY=0.5;entryDx=0;entryDy=0;strokeColor=#FF0000;" edge="1" parent="emeNvtZWzEPwYmurZ9CY-4">
          <mxGeometry relative="1" as="geometry">
            <Array as="points">
              <mxPoint x="106" y="871" />
              <mxPoint x="106" y="652" />
            </Array>
            <mxPoint x="135" y="652" as="targetPoint" />
          </mxGeometry>
        </mxCell>
        <mxCell id="emeNvtZWzEPwYmurZ9CY-2" value="" style="edgeStyle=orthogonalEdgeStyle;html=1;verticalAlign=bottom;endArrow=open;endSize=8;strokeColor=#ff0000;rounded=0;entryX=0.5;entryY=0;entryDx=0;entryDy=0;exitX=0.4;exitY=0.775;exitDx=0;exitDy=0;exitPerimeter=0;" edge="1" parent="emeNvtZWzEPwYmurZ9CY-4" source="emeNvtZWzEPwYmurZ9CY-5" target="QA8IRypYu4qGjrA7JDfg-12">
          <mxGeometry relative="1" as="geometry">
            <mxPoint x="195" y="174" as="targetPoint" />
            <Array as="points">
              <mxPoint x="192" y="124" />
            </Array>
          </mxGeometry>
        </mxCell>
        <mxCell id="QA8IRypYu4qGjrA7JDfg-12" value="Acceder al apartado &quot;Perfil&quot;" style="rounded=1;whiteSpace=wrap;html=1;arcSize=40;fontColor=#000000;fillColor=#ffffc0;strokeColor=#ff0000;" vertex="1" parent="emeNvtZWzEPwYmurZ9CY-4">
          <mxGeometry x="90" y="124" width="210" height="50" as="geometry" />
        </mxCell>
        <mxCell id="emeNvtZWzEPwYmurZ9CY-8" value="Sistema" style="swimlane;startSize=20;" vertex="1" parent="emeNvtZWzEPwYmurZ9CY-1">
          <mxGeometry x="390" width="640" height="800" as="geometry" />
        </mxCell>
        <mxCell id="bgSyCc6RqfUHCTmAN9yH-6" style="edgeStyle=orthogonalEdgeStyle;rounded=0;orthogonalLoop=1;jettySize=auto;html=1;entryX=0.5;entryY=0;entryDx=0;entryDy=0;" edge="1" parent="emeNvtZWzEPwYmurZ9CY-8" source="ycTayPr6X4MgAZ-6NEUM-33" target="bgSyCc6RqfUHCTmAN9yH-5">
          <mxGeometry relative="1" as="geometry" />
        </mxCell>
        <mxCell id="ycTayPr6X4MgAZ-6NEUM-33" value="Mostrar apartado" style="rounded=1;whiteSpace=wrap;html=1;arcSize=40;fontColor=#000000;fillColor=#ffffc0;strokeColor=#ff0000;" vertex="1" parent="emeNvtZWzEPwYmurZ9CY-8">
          <mxGeometry x="166" y="194" width="180" height="79" as="geometry" />
        </mxCell>
        <mxCell id="emeNvtZWzEPwYmurZ9CY-17" value="" style="ellipse;html=1;shape=endState;fillColor=#000000;strokeColor=#ff0000;" vertex="1" parent="emeNvtZWzEPwYmurZ9CY-8">
          <mxGeometry x="468" y="724" width="30" height="30" as="geometry" />
        </mxCell>
        <mxCell id="bgSyCc6RqfUHCTmAN9yH-10" style="edgeStyle=orthogonalEdgeStyle;rounded=0;orthogonalLoop=1;jettySize=auto;html=1;entryX=0.501;entryY=0.489;entryDx=0;entryDy=0;entryPerimeter=0;" edge="1" parent="emeNvtZWzEPwYmurZ9CY-8" source="bgSyCc6RqfUHCTmAN9yH-5" target="bgSyCc6RqfUHCTmAN9yH-11">
          <mxGeometry relative="1" as="geometry">
            <mxPoint x="256" y="424" as="targetPoint" />
          </mxGeometry>
        </mxCell>
        <mxCell id="bgSyCc6RqfUHCTmAN9yH-5" value="Mostrar perfil" style="rounded=1;whiteSpace=wrap;html=1;arcSize=40;fontColor=#000000;fillColor=#ffffc0;strokeColor=#ff0000;" vertex="1" parent="emeNvtZWzEPwYmurZ9CY-8">
          <mxGeometry x="166" y="304" width="180" height="79" as="geometry" />
        </mxCell>
        <mxCell id="bgSyCc6RqfUHCTmAN9yH-20" style="edgeStyle=orthogonalEdgeStyle;rounded=0;orthogonalLoop=1;jettySize=auto;html=1;entryX=0.5;entryY=0;entryDx=0;entryDy=0;" edge="1" parent="emeNvtZWzEPwYmurZ9CY-8" source="bgSyCc6RqfUHCTmAN9yH-11" target="bgSyCc6RqfUHCTmAN9yH-16">
          <mxGeometry relative="1" as="geometry" />
        </mxCell>
        <mxCell id="bgSyCc6RqfUHCTmAN9yH-11" value="" style="shape=line;html=1;strokeWidth=6;strokeColor=#ff0000;" vertex="1" parent="emeNvtZWzEPwYmurZ9CY-8">
          <mxGeometry x="156" y="424" width="394" height="10" as="geometry" />
        </mxCell>
        <mxCell id="bgSyCc6RqfUHCTmAN9yH-12" value="" style="edgeStyle=orthogonalEdgeStyle;html=1;verticalAlign=bottom;endArrow=open;endSize=8;strokeColor=#ff0000;rounded=0;entryX=0.5;entryY=0;entryDx=0;entryDy=0;exitX=0.495;exitY=0.305;exitDx=0;exitDy=0;exitPerimeter=0;" edge="1" parent="emeNvtZWzEPwYmurZ9CY-8" source="bgSyCc6RqfUHCTmAN9yH-11" target="bgSyCc6RqfUHCTmAN9yH-15">
          <mxGeometry relative="1" as="geometry">
            <mxPoint x="256" y="504" as="targetPoint" />
            <mxPoint x="356" y="469" as="sourcePoint" />
            <Array as="points">
              <mxPoint x="351" y="474" />
              <mxPoint x="73" y="474" />
            </Array>
          </mxGeometry>
        </mxCell>
        <mxCell id="bgSyCc6RqfUHCTmAN9yH-21" style="edgeStyle=orthogonalEdgeStyle;rounded=0;orthogonalLoop=1;jettySize=auto;html=1;entryX=0.5;entryY=0;entryDx=0;entryDy=0;exitX=0.499;exitY=0.406;exitDx=0;exitDy=0;exitPerimeter=0;" edge="1" parent="emeNvtZWzEPwYmurZ9CY-8" source="bgSyCc6RqfUHCTmAN9yH-11" target="bgSyCc6RqfUHCTmAN9yH-17">
          <mxGeometry relative="1" as="geometry">
            <mxPoint x="286" y="424" as="sourcePoint" />
            <mxPoint x="302" y="494" as="targetPoint" />
          </mxGeometry>
        </mxCell>
        <mxCell id="bgSyCc6RqfUHCTmAN9yH-22" style="edgeStyle=orthogonalEdgeStyle;rounded=0;orthogonalLoop=1;jettySize=auto;html=1;exitX=0.495;exitY=0.48;exitDx=0;exitDy=0;exitPerimeter=0;" edge="1" parent="emeNvtZWzEPwYmurZ9CY-8" source="bgSyCc6RqfUHCTmAN9yH-11" target="bgSyCc6RqfUHCTmAN9yH-18">
          <mxGeometry relative="1" as="geometry">
            <mxPoint x="366" y="504" as="sourcePoint" />
            <mxPoint x="382" y="574" as="targetPoint" />
            <Array as="points">
              <mxPoint x="351" y="474" />
              <mxPoint x="483" y="474" />
            </Array>
          </mxGeometry>
        </mxCell>
        <mxCell id="bgSyCc6RqfUHCTmAN9yH-15" value="Visualizar datos basicos perfil&lt;span style=&quot;color: rgba(0, 0, 0, 0); font-family: monospace; font-size: 0px; text-align: start; text-wrap-mode: nowrap;&quot;&gt;3CmxGraphModel%3E%3Croot%3E%3CmxCell%20id%3D%220%22%2F%3E%3CmxCell%20id%3D%221%22%20parent%3D%220%22%2F%3E%3CmxCell%20id%3D%222%22%20value%3D%22Datos%20basicos%22%20style%3D%22rounded%3D1%3BwhiteSpace%3Dwrap%3Bhtml%3D1%3BarcSize%3D40%3BfontColor%3D%23000000%3BfillColor%3D%23ffffc0%3BstrokeColor%3D%23ff0000%3B%22%20vertex%3D%221%22%20parent%3D%221%22%3E%3CmxGeometry%20x%3D%22440%22%20y%3D%22-540%22%20width%3D%22180%22%20height%3D%2279%22%20as%3D%22geometry%22%2F%3E%3C%2FmxCell%3E%3C%2Froot%3E%3C%2FmxGraphModel%3E&lt;/span&gt;" style="rounded=1;whiteSpace=wrap;html=1;arcSize=40;fontColor=#000000;fillColor=#ffffc0;strokeColor=#ff0000;" vertex="1" parent="emeNvtZWzEPwYmurZ9CY-8">
          <mxGeometry x="16" y="504" width="114" height="79" as="geometry" />
        </mxCell>
        <mxCell id="bgSyCc6RqfUHCTmAN9yH-16" value="Cambiar contraseña" style="rounded=1;whiteSpace=wrap;html=1;arcSize=40;fontColor=#000000;fillColor=#ffffc0;strokeColor=#ff0000;" vertex="1" parent="emeNvtZWzEPwYmurZ9CY-8">
          <mxGeometry x="164" y="504" width="116" height="79" as="geometry" />
        </mxCell>
        <mxCell id="bgSyCc6RqfUHCTmAN9yH-35" style="edgeStyle=orthogonalEdgeStyle;rounded=0;orthogonalLoop=1;jettySize=auto;html=1;entryX=0.511;entryY=0.309;entryDx=0;entryDy=0;entryPerimeter=0;" edge="1" parent="emeNvtZWzEPwYmurZ9CY-8" source="bgSyCc6RqfUHCTmAN9yH-17" target="bgSyCc6RqfUHCTmAN9yH-31">
          <mxGeometry relative="1" as="geometry">
            <mxPoint x="361" y="654" as="targetPoint" />
            <Array as="points">
              <mxPoint x="357" y="594" />
              <mxPoint x="357" y="594" />
            </Array>
          </mxGeometry>
        </mxCell>
        <mxCell id="bgSyCc6RqfUHCTmAN9yH-17" value="Cambiar documento" style="rounded=1;whiteSpace=wrap;html=1;arcSize=40;fontColor=#000000;fillColor=#ffffc0;strokeColor=#ff0000;" vertex="1" parent="emeNvtZWzEPwYmurZ9CY-8">
          <mxGeometry x="302" y="504" width="118" height="79" as="geometry" />
        </mxCell>
        <mxCell id="bgSyCc6RqfUHCTmAN9yH-18" value="Editar Perfil" style="rounded=1;whiteSpace=wrap;html=1;arcSize=40;fontColor=#000000;fillColor=#ffffc0;strokeColor=#ff0000;" vertex="1" parent="emeNvtZWzEPwYmurZ9CY-8">
          <mxGeometry x="436" y="504" width="94" height="79" as="geometry" />
        </mxCell>
        <mxCell id="bgSyCc6RqfUHCTmAN9yH-28" value="Solicitud cambio de documento" style="rounded=1;whiteSpace=wrap;html=1;arcSize=22;fontColor=#000000;fillColor=#ffffc0;strokeColor=#ff0000;" vertex="1" parent="emeNvtZWzEPwYmurZ9CY-8">
          <mxGeometry x="586" y="504" width="94" height="79" as="geometry" />
        </mxCell>
        <mxCell id="bgSyCc6RqfUHCTmAN9yH-29" style="edgeStyle=orthogonalEdgeStyle;rounded=0;orthogonalLoop=1;jettySize=auto;html=1;entryX=0.5;entryY=0;entryDx=0;entryDy=0;" edge="1" parent="emeNvtZWzEPwYmurZ9CY-8" source="bgSyCc6RqfUHCTmAN9yH-11" target="bgSyCc6RqfUHCTmAN9yH-28">
          <mxGeometry relative="1" as="geometry">
            <Array as="points">
              <mxPoint x="353" y="474" />
              <mxPoint x="636" y="474" />
              <mxPoint x="636" y="504" />
            </Array>
          </mxGeometry>
        </mxCell>
        <mxCell id="bgSyCc6RqfUHCTmAN9yH-38" style="edgeStyle=orthogonalEdgeStyle;rounded=0;orthogonalLoop=1;jettySize=auto;html=1;entryX=0;entryY=0.5;entryDx=0;entryDy=0;" edge="1" parent="emeNvtZWzEPwYmurZ9CY-8" source="bgSyCc6RqfUHCTmAN9yH-31" target="emeNvtZWzEPwYmurZ9CY-17">
          <mxGeometry relative="1" as="geometry">
            <mxPoint x="456" y="774" as="targetPoint" />
          </mxGeometry>
        </mxCell>
        <mxCell id="bgSyCc6RqfUHCTmAN9yH-31" value="" style="shape=line;html=1;strokeWidth=6;strokeColor=#ff0000;" vertex="1" parent="emeNvtZWzEPwYmurZ9CY-8">
          <mxGeometry x="156" y="654" width="394" height="10" as="geometry" />
        </mxCell>
        <mxCell id="bgSyCc6RqfUHCTmAN9yH-32" style="edgeStyle=orthogonalEdgeStyle;rounded=0;orthogonalLoop=1;jettySize=auto;html=1;entryX=0.515;entryY=0.167;entryDx=0;entryDy=0;entryPerimeter=0;" edge="1" parent="emeNvtZWzEPwYmurZ9CY-8" source="bgSyCc6RqfUHCTmAN9yH-15" target="bgSyCc6RqfUHCTmAN9yH-31">
          <mxGeometry relative="1" as="geometry">
            <Array as="points">
              <mxPoint x="73" y="624" />
              <mxPoint x="359" y="624" />
            </Array>
          </mxGeometry>
        </mxCell>
        <mxCell id="bgSyCc6RqfUHCTmAN9yH-34" style="edgeStyle=orthogonalEdgeStyle;rounded=0;orthogonalLoop=1;jettySize=auto;html=1;entryX=0.514;entryY=0.14;entryDx=0;entryDy=0;entryPerimeter=0;" edge="1" parent="emeNvtZWzEPwYmurZ9CY-8" source="bgSyCc6RqfUHCTmAN9yH-16" target="bgSyCc6RqfUHCTmAN9yH-31">
          <mxGeometry relative="1" as="geometry">
            <Array as="points">
              <mxPoint x="222" y="624" />
              <mxPoint x="358" y="624" />
            </Array>
          </mxGeometry>
        </mxCell>
        <mxCell id="bgSyCc6RqfUHCTmAN9yH-36" style="edgeStyle=orthogonalEdgeStyle;rounded=0;orthogonalLoop=1;jettySize=auto;html=1;entryX=0.516;entryY=0.224;entryDx=0;entryDy=0;entryPerimeter=0;" edge="1" parent="emeNvtZWzEPwYmurZ9CY-8" source="bgSyCc6RqfUHCTmAN9yH-18" target="bgSyCc6RqfUHCTmAN9yH-31">
          <mxGeometry relative="1" as="geometry">
            <Array as="points">
              <mxPoint x="483" y="624" />
              <mxPoint x="359" y="624" />
            </Array>
          </mxGeometry>
        </mxCell>
        <mxCell id="bgSyCc6RqfUHCTmAN9yH-37" style="edgeStyle=orthogonalEdgeStyle;rounded=0;orthogonalLoop=1;jettySize=auto;html=1;" edge="1" parent="emeNvtZWzEPwYmurZ9CY-8" source="bgSyCc6RqfUHCTmAN9yH-28">
          <mxGeometry relative="1" as="geometry">
            <mxPoint x="356" y="654" as="targetPoint" />
            <Array as="points">
              <mxPoint x="633" y="624" />
              <mxPoint x="360" y="624" />
              <mxPoint x="360" y="644" />
              <mxPoint x="356" y="644" />
            </Array>
          </mxGeometry>
        </mxCell>
        <mxCell id="bgSyCc6RqfUHCTmAN9yH-1" style="edgeStyle=orthogonalEdgeStyle;rounded=0;orthogonalLoop=1;jettySize=auto;html=1;entryX=0.5;entryY=0;entryDx=0;entryDy=0;" edge="1" parent="emeNvtZWzEPwYmurZ9CY-1" source="QA8IRypYu4qGjrA7JDfg-12" target="ycTayPr6X4MgAZ-6NEUM-33">
          <mxGeometry relative="1" as="geometry" />
        </mxCell>
        <mxCell id="bgSyCc6RqfUHCTmAN9yH-23" value="Cliente" style="swimlane;startSize=20;" vertex="1" parent="1">
          <mxGeometry x="1054" y="-1044" width="334" height="804" as="geometry" />
        </mxCell>
        <mxCell id="bgSyCc6RqfUHCTmAN9yH-25" style="edgeStyle=orthogonalEdgeStyle;rounded=0;orthogonalLoop=1;jettySize=auto;html=1;entryX=0;entryY=0.5;entryDx=0;entryDy=0;strokeColor=#FF0000;" edge="1" parent="bgSyCc6RqfUHCTmAN9yH-23">
          <mxGeometry relative="1" as="geometry">
            <Array as="points">
              <mxPoint x="106" y="871" />
              <mxPoint x="106" y="652" />
            </Array>
            <mxPoint x="135" y="652" as="targetPoint" />
          </mxGeometry>
        </mxCell>
      </root>
    </mxGraphModel>
  </diagram>
</mxfile>
